<svg width="333" height="433" viewBox="0 0 333 433" fill="none" xmlns="http://www.w3.org/2000/svg">
<path d="M302.488 181.417C313.491 180.46 323.188 188.605 324.146 199.609C325.103 210.612 316.959 220.309 305.955 221.267L138.544 235.832C150.984 277.215 186.889 303.074 228.041 316.193C244.051 321.432 260.851 324.972 277.691 326.412C285.941 327.072 294.251 327.472 302.471 326.772C326.291 315.112 344.421 348.462 321.471 362.062C318.231 363.812 314.721 364.572 311.281 364.452C311.23 364.46 302.758 364.125 302.701 364.122C283.582 362.562 264.281 359.613 245.531 355.653C201.44 346.749 156.728 326.533 127.977 291.882C123.215 316.01 115.814 339.6 105.461 362.032C100.988 371.616 95.9309 380.967 90.2678 389.938C93.1325 394.277 94.802 399.474 94.802 405.063C94.8018 420.245 82.4938 432.553 67.3118 432.553C52.1296 432.553 39.8217 420.245 39.8215 405.063C39.8215 398.139 42.3815 391.812 46.6067 386.979C73.4229 345.258 90.3335 297.332 95.2913 247.892C95.5959 245.116 95.8466 242.325 96.0657 239.529L21.7346 245.996C10.7309 246.953 1.03404 238.81 0.0764221 227.806C-0.88073 216.802 7.26415 207.105 18.2678 206.148L302.488 181.417ZM187.077 0.0598052C197.918 -0.773637 207.404 7.20042 208.506 17.9543L208.552 18.468L218.432 146.978L218.465 147.493C219.02 158.29 210.865 167.619 200.024 168.452C189.183 169.285 179.698 161.313 178.596 150.559L178.549 150.044L168.669 21.5344L168.636 21.0188C168.081 10.2234 176.237 0.893631 187.077 0.0598052ZM119.61 19.4309C130.466 18.8381 139.773 27.0204 140.636 37.7961L140.671 38.3108L146.521 145.431C147.123 156.46 138.67 165.889 127.641 166.491C116.612 167.093 107.183 158.641 106.58 147.613L100.73 40.4924L100.708 39.9768C100.393 29.1713 108.753 20.0243 119.61 19.4309Z" fill="#10B981"/>
</svg>
